<mxfile host="app.diagrams.net" modified="2021-02-08T08:08:19.504Z" agent="5.0 (Macintosh; Intel Mac OS X 11_1_0) AppleWebKit/537.36 (KHTML, like Gecko) Chrome/88.0.4324.146 Safari/537.36" etag="d4asPGqHID42o_iF2WOc" version="14.3.0" type="github" pages="2">
  <diagram id="qNcUAQGZJetffSZU7KwL" name="Page-1">
    <mxGraphModel dx="894" dy="621" grid="1" gridSize="10" guides="1" tooltips="1" connect="1" arrows="1" fold="1" page="1" pageScale="1" pageWidth="827" pageHeight="1169" math="0" shadow="0">
      <root>
        <mxCell id="0" />
        <mxCell id="1" parent="0" />
        <mxCell id="-fSjF9Hz_0KbB6aGet6d-2" value="Magento" style="shape=cylinder3;whiteSpace=wrap;html=1;boundedLbl=1;backgroundOutline=1;size=15;" vertex="1" parent="1">
          <mxGeometry x="60" y="220" width="130" height="80" as="geometry" />
        </mxCell>
        <mxCell id="-fSjF9Hz_0KbB6aGet6d-4" value="CN Store" style="rounded=0;whiteSpace=wrap;html=1;" vertex="1" parent="1">
          <mxGeometry x="200" y="80" width="120" height="60" as="geometry" />
        </mxCell>
        <mxCell id="-fSjF9Hz_0KbB6aGet6d-5" value="Tmall" style="rounded=0;whiteSpace=wrap;html=1;" vertex="1" parent="1">
          <mxGeometry x="384" y="80" width="120" height="60" as="geometry" />
        </mxCell>
        <mxCell id="-fSjF9Hz_0KbB6aGet6d-6" value="JD mall" style="rounded=0;whiteSpace=wrap;html=1;" vertex="1" parent="1">
          <mxGeometry x="550" y="80" width="120" height="60" as="geometry" />
        </mxCell>
        <mxCell id="-fSjF9Hz_0KbB6aGet6d-7" value="Middleware" style="rounded=1;whiteSpace=wrap;html=1;" vertex="1" parent="1">
          <mxGeometry x="330" y="220" width="350" height="80" as="geometry" />
        </mxCell>
        <mxCell id="-fSjF9Hz_0KbB6aGet6d-8" value="NetSuite" style="shape=cylinder3;whiteSpace=wrap;html=1;boundedLbl=1;backgroundOutline=1;size=15;" vertex="1" parent="1">
          <mxGeometry x="60" y="380" width="130" height="80" as="geometry" />
        </mxCell>
        <mxCell id="-fSjF9Hz_0KbB6aGet6d-9" value="Wechat Store" style="rounded=0;whiteSpace=wrap;html=1;" vertex="1" parent="1">
          <mxGeometry x="20" y="80" width="120" height="60" as="geometry" />
        </mxCell>
        <mxCell id="-fSjF9Hz_0KbB6aGet6d-10" value="" style="endArrow=classic;startArrow=classic;html=1;entryX=0.5;entryY=1;entryDx=0;entryDy=0;exitX=0.855;exitY=0;exitDx=0;exitDy=4.35;exitPerimeter=0;" edge="1" parent="1" source="-fSjF9Hz_0KbB6aGet6d-2" target="-fSjF9Hz_0KbB6aGet6d-4">
          <mxGeometry width="50" height="50" relative="1" as="geometry">
            <mxPoint x="390" y="350" as="sourcePoint" />
            <mxPoint x="440" y="300" as="targetPoint" />
            <Array as="points" />
          </mxGeometry>
        </mxCell>
        <mxCell id="-fSjF9Hz_0KbB6aGet6d-11" value="" style="endArrow=classic;startArrow=classic;html=1;exitX=0.145;exitY=0;exitDx=0;exitDy=4.35;exitPerimeter=0;entryX=0.5;entryY=1;entryDx=0;entryDy=0;" edge="1" parent="1" source="-fSjF9Hz_0KbB6aGet6d-2" target="-fSjF9Hz_0KbB6aGet6d-9">
          <mxGeometry width="50" height="50" relative="1" as="geometry">
            <mxPoint x="390" y="350" as="sourcePoint" />
            <mxPoint x="440" y="300" as="targetPoint" />
          </mxGeometry>
        </mxCell>
        <mxCell id="-fSjF9Hz_0KbB6aGet6d-12" value="" style="shape=flexArrow;endArrow=classic;startArrow=classic;html=1;entryX=0;entryY=0.5;entryDx=0;entryDy=0;exitX=1;exitY=0.5;exitDx=0;exitDy=0;exitPerimeter=0;" edge="1" parent="1" source="-fSjF9Hz_0KbB6aGet6d-2" target="-fSjF9Hz_0KbB6aGet6d-7">
          <mxGeometry width="50" height="50" relative="1" as="geometry">
            <mxPoint x="390" y="350" as="sourcePoint" />
            <mxPoint x="440" y="300" as="targetPoint" />
          </mxGeometry>
        </mxCell>
        <mxCell id="-fSjF9Hz_0KbB6aGet6d-13" value="" style="shape=flexArrow;endArrow=classic;startArrow=classic;html=1;entryX=0.5;entryY=1;entryDx=0;entryDy=0;entryPerimeter=0;" edge="1" parent="1" source="-fSjF9Hz_0KbB6aGet6d-8" target="-fSjF9Hz_0KbB6aGet6d-2">
          <mxGeometry width="50" height="50" relative="1" as="geometry">
            <mxPoint x="40" y="330" as="sourcePoint" />
            <mxPoint x="90" y="280" as="targetPoint" />
          </mxGeometry>
        </mxCell>
        <mxCell id="-fSjF9Hz_0KbB6aGet6d-14" value="" style="shape=flexArrow;endArrow=classic;startArrow=classic;html=1;entryX=0;entryY=1;entryDx=0;entryDy=0;exitX=1;exitY=0.5;exitDx=0;exitDy=0;exitPerimeter=0;" edge="1" parent="1" source="-fSjF9Hz_0KbB6aGet6d-8" target="-fSjF9Hz_0KbB6aGet6d-7">
          <mxGeometry width="50" height="50" relative="1" as="geometry">
            <mxPoint x="290" y="370" as="sourcePoint" />
            <mxPoint x="340" y="320" as="targetPoint" />
          </mxGeometry>
        </mxCell>
        <mxCell id="-fSjF9Hz_0KbB6aGet6d-15" value="" style="endArrow=classic;startArrow=classic;html=1;entryX=0.5;entryY=1;entryDx=0;entryDy=0;exitX=0.361;exitY=-0.05;exitDx=0;exitDy=0;exitPerimeter=0;" edge="1" parent="1" source="-fSjF9Hz_0KbB6aGet6d-7" target="-fSjF9Hz_0KbB6aGet6d-5">
          <mxGeometry width="50" height="50" relative="1" as="geometry">
            <mxPoint x="390" y="350" as="sourcePoint" />
            <mxPoint x="440" y="300" as="targetPoint" />
          </mxGeometry>
        </mxCell>
        <mxCell id="-fSjF9Hz_0KbB6aGet6d-16" value="" style="endArrow=classic;startArrow=classic;html=1;entryX=0.5;entryY=1;entryDx=0;entryDy=0;exitX=0.75;exitY=0;exitDx=0;exitDy=0;" edge="1" parent="1" source="-fSjF9Hz_0KbB6aGet6d-7" target="-fSjF9Hz_0KbB6aGet6d-6">
          <mxGeometry width="50" height="50" relative="1" as="geometry">
            <mxPoint x="390" y="350" as="sourcePoint" />
            <mxPoint x="440" y="300" as="targetPoint" />
          </mxGeometry>
        </mxCell>
        <mxCell id="-fSjF9Hz_0KbB6aGet6d-18" value="Invoice system" style="shape=cylinder3;whiteSpace=wrap;html=1;boundedLbl=1;backgroundOutline=1;size=15;" vertex="1" parent="1">
          <mxGeometry x="349" y="380" width="130" height="80" as="geometry" />
        </mxCell>
        <mxCell id="-fSjF9Hz_0KbB6aGet6d-19" value="" style="shape=flexArrow;endArrow=classic;startArrow=classic;html=1;entryX=0.25;entryY=1;entryDx=0;entryDy=0;exitX=0.5;exitY=0;exitDx=0;exitDy=0;exitPerimeter=0;" edge="1" parent="1" source="-fSjF9Hz_0KbB6aGet6d-18" target="-fSjF9Hz_0KbB6aGet6d-7">
          <mxGeometry width="50" height="50" relative="1" as="geometry">
            <mxPoint x="440" y="430" as="sourcePoint" />
            <mxPoint x="490" y="380" as="targetPoint" />
          </mxGeometry>
        </mxCell>
        <mxCell id="-fSjF9Hz_0KbB6aGet6d-22" value="Warehouse" style="rounded=0;whiteSpace=wrap;html=1;" vertex="1" parent="1">
          <mxGeometry x="533" y="390" width="120" height="60" as="geometry" />
        </mxCell>
        <mxCell id="-fSjF9Hz_0KbB6aGet6d-26" value="" style="endArrow=classic;startArrow=classic;html=1;entryX=0.75;entryY=1;entryDx=0;entryDy=0;exitX=0.5;exitY=0;exitDx=0;exitDy=0;" edge="1" parent="1" source="-fSjF9Hz_0KbB6aGet6d-22" target="-fSjF9Hz_0KbB6aGet6d-7">
          <mxGeometry width="50" height="50" relative="1" as="geometry">
            <mxPoint x="390" y="350" as="sourcePoint" />
            <mxPoint x="440" y="300" as="targetPoint" />
          </mxGeometry>
        </mxCell>
      </root>
    </mxGraphModel>
  </diagram>
  <diagram id="a8QoYU3uizT3Y0XRhWZA" name="Page-2">
    <mxGraphModel dx="899" dy="623" grid="1" gridSize="10" guides="1" tooltips="1" connect="1" arrows="1" fold="1" page="1" pageScale="1" pageWidth="827" pageHeight="1169" math="0" shadow="0">
      <root>
        <mxCell id="fV2MT0JohxD7M5UsY4Q4-0" />
        <mxCell id="fV2MT0JohxD7M5UsY4Q4-1" parent="fV2MT0JohxD7M5UsY4Q4-0" />
      </root>
    </mxGraphModel>
  </diagram>
</mxfile>
